<?xml version="1.0" encoding="utf-8"?>
<svg width="75.146" height="47.5" viewBox="0 0 75.146 47.5" fill="none" xmlns="http://www.w3.org/2000/svg">
  <g id="SingleElement">
    <path d="M0 1.6532C0 1.6005 0.00288391 1.5487 0.00805283 1.4963C0.0132256 1.4439 0.0219231 1.3911 0.0322151 1.3394C0.0425072 1.2877 0.0531425 1.237 0.0684547 1.1866C0.0837708 1.1362 0.100616 1.0864 0.120804 1.0378C0.140991 0.9891 0.164391 0.9394 0.189259 0.8929C0.214127 0.8465 0.240486 0.804001 0.269794 0.760201C0.299103 0.7164 0.33297 0.672199 0.366436 0.6315C0.399902 0.590799 0.433834 0.552099 0.471134 0.514799C0.508434 0.4776 0.547134 0.443701 0.587914 0.410299C0.628693 0.376801 0.672901 0.343 0.716763 0.3137C0.760632 0.284399 0.803131 0.258101 0.849651 0.233299C0.896172 0.208401 0.945885 0.185101 0.994614 0.1649C1.04335 0.144699 1.09312 0.127899 1.1436 0.1126C1.19409 0.0972996 1.24488 0.0867004 1.29662 0.0764008C1.34836 0.0660992 1.40117 0.0573997 1.45366 0.0522995C1.50616 0.0471001 1.55795 0.044199 1.61071 0.044199C1.61071 0.044199 4.83213 0.044199 4.83213 0.044199C5.63749 0.044199 6.04017 0.446501 6.44284 0.8487C6.44284 0.8487 8.05355 2.4576 8.05355 2.4576C8.45623 2.8599 8.85891 3.2621 9.6643 3.2621C9.6643 3.2621 14.4964 3.2621 14.4964 3.2621C15.3018 3.2621 15.7044 2.8599 16.1071 2.4576C16.1071 2.4576 17.7178 0.8487 17.7178 0.8487C18.1181 0.044199 19.3285 0.044199 19.3285 0.044199C19.3285 0.044199 60.2688 0 60.2688 0C60.3215 0 60.4258 0.00799942 60.4258 0.00799942C60.4258 0.00799942 60.5309 0.0219002 60.5829 0.0321999C60.6348 0.0424004 60.6856 0.0531006 60.7359 0.0683994C60.7862 0.0837002 60.8362 0.1005 60.8849 0.1206C60.9336 0.1408 60.9836 0.1642 61.0299 0.188999C61.0766 0.2139 61.1189 0.2402 61.1627 0.269501C61.2066 0.2988 61.2509 0.3326 61.2916 0.365999C61.3323 0.399401 61.3709 0.4333 61.4084 0.4706C61.4458 0.5079 61.4796 0.546499 61.5131 0.5872C61.5465 0.628 61.5803 0.6721 61.6097 0.716C61.6391 0.7598 61.6653 0.8022 61.6903 0.8487C61.7148 0.895201 61.7386 0.944799 61.7587 0.9935C61.7792 1.0422 61.7958 1.0919 61.8111 1.1423C61.8264 1.1928 61.8413 1.2435 61.8513 1.2952C61.8614 1.3469 61.8662 1.3996 61.8715 1.4521C61.8767 1.5045 61.8795 1.5562 61.8795 1.6089C61.8795 1.6089 61.8795 4.8268 61.8795 4.8268L61.8795 16.894C61.8795 16.894 61.8795 18.5029 61.8795 18.5029C61.8795 18.5556 61.8767 18.6073 61.8715 18.6598C61.8662 18.7122 61.8614 18.765 61.8513 18.8166C61.8413 18.8683 61.8264 18.9191 61.8111 18.9695C61.7958 19.0199 61.7792 19.0697 61.7587 19.1183C61.7386 19.167 61.7148 19.2167 61.6903 19.2631C61.6653 19.3096 61.6391 19.3521 61.6097 19.3959C61.5803 19.4397 61.5465 19.4838 61.5131 19.5246C61.4796 19.5653 61.4458 19.604 61.4084 19.6412C61.3709 19.6785 61.3323 19.7124 61.2916 19.7458C61.2509 19.7792 61.2066 19.8131 61.1627 19.8424C61.1189 19.8716 61.0766 19.898 61.0299 19.9228C60.9836 19.9476 60.9336 19.971 60.8849 19.9912C60.8362 20.0113 60.7862 20.0281 60.7359 20.0435C60.6856 20.0588 60.6348 20.0694 60.5829 20.0797C60.5309 20.09 60.4782 20.0987 60.4258 20.1038C60.3731 20.109 60.3215 20.1119 60.2688 20.1119C60.2688 20.1119 19.3285 20.1561 19.3285 20.1561C18.5232 20.1561 18.1205 20.5583 17.7178 20.9606C17.7178 20.9606 16.1071 22.5695 16.1071 22.5695C15.7044 22.9718 15.3018 23.374 14.4964 23.374C14.4964 23.374 9.6643 23.374 9.6643 23.374C8.85891 23.374 8.45623 22.9718 8.05355 22.5695C8.05355 22.5695 6.44284 20.9606 6.44284 20.9606C6.04017 20.5583 5.63749 20.1561 4.83213 20.1561C4.83213 20.1561 1.61071 20.1561 1.61071 20.1561C1.55795 20.1561 1.50616 20.1532 1.45366 20.1481C1.40117 20.1429 1.34836 20.1342 1.29662 20.1239C1.24488 20.1137 1.19409 20.103 1.1436 20.0877C1.09312 20.0724 1.04335 20.0556 0.994614 20.0354C0.945885 20.0153 0.896172 19.9919 0.849651 19.967C0.803131 19.9422 0.760632 19.9159 0.716763 19.8866C0.672901 19.8573 0.628693 19.8235 0.587914 19.7901C0.547134 19.7566 0.508434 19.7228 0.471134 19.6855C0.433834 19.6482 0.399902 19.6096 0.366436 19.5688C0.33297 19.5281 0.299103 19.4839 0.269794 19.4401C0.240486 19.3963 0.214127 19.3538 0.189259 19.3074C0.164391 19.2609 0.140991 19.2113 0.120804 19.1626C0.100616 19.1139 0.0837708 19.0642 0.0684547 19.0137C0.0531425 18.9633 0.0425072 18.9126 0.0322151 18.8609C0.0219231 18.8092 0.0132256 18.7564 0.00805283 18.704C0.00288391 18.6516 0 18.5998 0 18.5471C0 18.5471 0 1.6532 0 1.6532Z" fill="#0099FF" stroke-width="1" stroke="#0066FF" transform="translate(0.5 22.5)" />
    <path d="M0 1.60895C0 1.55625 0.00258636 1.50368 0.00775528 1.45124C0.012928 1.39881 0.0206566 1.34674 0.0309486 1.29506C0.0412407 1.24338 0.0540428 1.19232 0.0693588 1.1419C0.084671 1.09147 0.102421 1.04192 0.122608 0.99323C0.142796 0.94455 0.165321 0.89697 0.190189 0.8505C0.215057 0.80402 0.242146 0.75888 0.271454 0.71507C0.300762 0.67125 0.33215 0.62898 0.365616 0.58824C0.399078 0.54751 0.434464 0.50851 0.471764 0.471249C0.509071 0.43399 0.548111 0.398643 0.58889 0.365215C0.629669 0.331785 0.671982 0.300433 0.715851 0.271157C0.759708 0.241881 0.804901 0.214823 0.851429 0.189983C0.897949 0.165143 0.94558 0.142639 0.99432 0.122474C1.04306 0.102309 1.09267 0.0845776 1.14315 0.0692806C1.19363 0.0539837 1.24474 0.0411959 1.29648 0.0309162C1.34822 0.0206347 1.40034 0.0129128 1.45283 0.00774765C1.50533 0.0025816 1.55796 0 1.61071 0C1.61071 0 4.83213 0 4.83213 0C5.63749 0 6.04017 0.402238 6.44284 0.80448C6.44284 0.80448 8.05355 2.41343 8.05355 2.41343C8.45623 2.81566 8.85891 3.2179 9.6643 3.2179C9.6643 3.2179 14.4964 3.2179 14.4964 3.2179C15.3018 3.2179 15.7044 2.81566 16.1071 2.41343C16.1071 2.41343 17.7178 0.80448 17.7178 0.80448C18.1205 0.402238 18.5232 0 19.3285 0C19.3285 0 46.3079 0 46.3079 0C46.3607 0 46.4134 0.0025816 46.4658 0.00774765C46.5185 0.0129128 46.5705 0.0206347 46.622 0.0309162C46.674 0.0411959 46.7251 0.0539837 46.7754 0.0692806C46.8258 0.0845776 46.8757 0.102309 46.9244 0.122474C46.9732 0.142639 47.0207 0.165143 47.0674 0.189983C47.1137 0.214823 47.1588 0.241881 47.2027 0.271157C47.2466 0.300433 47.2893 0.331785 47.3299 0.365215C47.3706 0.398643 47.4093 0.43399 47.4467 0.471249C47.4842 0.50851 47.5196 0.54751 47.553 0.58824C47.5864 0.62898 47.6179 0.67125 47.6472 0.71507C47.6766 0.75888 47.7036 0.80402 47.7286 0.8505C47.7532 0.89697 47.7757 0.94455 47.7962 0.99323C47.8164 1.04192 47.8341 1.09147 47.8494 1.1419C47.8647 1.19232 47.8776 1.24338 47.8876 1.29506C47.8977 1.34674 47.9058 1.39881 47.911 1.45124C47.9162 1.50368 47.9187 1.55625 47.9187 1.60895C47.9187 1.60895 47.9187 4.82685 47.9187 4.82685L47.9187 16.0895C47.9187 16.0895 47.9187 17.6985 47.9187 17.6985C47.9187 17.7511 47.9162 17.8037 47.911 17.8562C47.9058 17.9086 47.8977 17.9607 47.8876 18.0124C47.8776 18.064 47.8647 18.1151 47.8494 18.1655C47.8341 18.2159 47.8164 18.2655 47.7962 18.3142C47.7757 18.3629 47.7532 18.4105 47.7286 18.4569C47.7036 18.5034 47.6766 18.5485 47.6472 18.5923C47.6179 18.6361 47.5864 18.6784 47.553 18.7192C47.5196 18.7599 47.4842 18.7989 47.4467 18.8361C47.4093 18.8734 47.3706 18.9087 47.3299 18.9422C47.2893 18.9756 47.2466 19.007 47.2027 19.0363C47.1588 19.0655 47.1137 19.0926 47.0674 19.1174C47.0207 19.1422 46.9732 19.1648 46.9244 19.1849C46.8757 19.2051 46.8258 19.2228 46.7754 19.2381C46.7251 19.2534 46.674 19.2662 46.622 19.2765C46.5705 19.2868 46.5185 19.2945 46.4658 19.2996C46.4134 19.3048 46.3607 19.3074 46.3079 19.3074C46.3079 19.3074 19.3285 19.3074 19.3285 19.3074C18.5232 19.3074 18.1205 19.7096 17.7178 20.1119C17.7178 20.1119 16.1071 21.7208 16.1071 21.7208C15.7044 22.1231 15.3018 22.5253 14.4964 22.5253C14.4964 22.5253 9.6643 22.5253 9.6643 22.5253C8.85891 22.5253 8.45623 22.1231 8.05355 21.7208C8.05355 21.7208 6.44284 20.1119 6.44284 20.1119C6.04017 19.7096 5.63749 19.3074 4.83213 19.3074C4.83213 19.3074 1.61071 19.3074 1.61071 19.3074C1.55796 19.3074 1.50533 19.3048 1.45283 19.2996C1.40034 19.2945 1.34822 19.2868 1.29648 19.2765C1.24474 19.2662 1.19363 19.2534 1.14315 19.2381C1.09267 19.2228 1.04306 19.2051 0.99432 19.1849C0.94558 19.1648 0.897949 19.1422 0.851429 19.1174C0.804901 19.0926 0.759708 19.0655 0.715851 19.0363C0.671982 19.007 0.629669 18.9756 0.58889 18.9422C0.548111 18.9087 0.509071 18.8734 0.471764 18.8361C0.434464 18.7989 0.399078 18.7599 0.365616 18.7192C0.33215 18.6784 0.300762 18.6361 0.271454 18.5923C0.242146 18.5485 0.215057 18.5034 0.190189 18.4569C0.165321 18.4105 0.142796 18.3629 0.122608 18.3142C0.102421 18.2655 0.084671 18.2159 0.0693588 18.1655C0.0540428 18.1151 0.0412407 18.064 0.0309486 18.0124C0.0206566 17.9607 0.012928 17.9086 0.00775528 17.8562C0.00258636 17.8037 0 17.7511 0 17.6985C0 17.6985 0 1.60895 0 1.60895Z" fill="#0099FF" stroke-width="1" stroke="#0066FF" transform="translate(0.5 0.5)" />
    <path d="M12.0254 12.7273L14.5709 12.7273C14.5709 12.7273 14.5709 3.81818 14.5709 3.81818C14.5709 3.45758 14.4489 3.1553 14.2049 2.91136C13.961 2.66742 13.6587 2.54545 13.2981 2.54545C12.9375 2.54545 12.6352 2.66742 12.3913 2.91136C12.1474 3.1553 12.0254 3.45758 12.0254 3.81818C12.0254 3.81818 12.0254 12.7273 12.0254 12.7273L12.0254 12.7273ZM4.38904 17.8182L22.2072 17.8182L22.2072 15.2727L4.38904 15.2727L4.38904 17.8182L4.38904 17.8182ZM2.54358 25.4545L5.66177 25.4545C5.66177 25.4545 5.66177 22.9091 5.66177 22.9091C5.66177 22.5485 5.78373 22.2462 6.02767 22.0023C6.27161 21.7583 6.57389 21.6364 6.93449 21.6364C7.2951 21.6364 7.59737 21.7583 7.84131 22.0023C8.08525 22.2462 8.20722 22.5485 8.20722 22.9091C8.20722 22.9091 8.20722 25.4545 8.20722 25.4545L12.0254 25.4545C12.0254 25.4545 12.0254 22.9091 12.0254 22.9091C12.0254 22.5485 12.1474 22.2462 12.3913 22.0023C12.6352 21.7583 12.9375 21.6364 13.2981 21.6364C13.6587 21.6364 13.961 21.7583 14.2049 22.0023C14.4489 22.2462 14.5709 22.5485 14.5709 22.9091C14.5709 22.9091 14.5709 25.4545 14.5709 25.4545L18.389 25.4545C18.389 25.4545 18.389 22.9091 18.389 22.9091C18.389 22.5485 18.511 22.2462 18.7549 22.0023C18.9989 21.7583 19.3012 21.6364 19.6618 21.6364C20.0224 21.6364 20.3246 21.7583 20.5686 22.0023C20.8125 22.2462 20.9345 22.5485 20.9345 22.9091C20.9345 22.9091 20.9345 25.4545 20.9345 25.4545L24.0527 25.4545L22.7799 20.3636L3.81631 20.3636L2.54358 25.4545L2.54358 25.4545ZM24.0527 28C24.0527 28 2.54358 28 2.54358 28C1.71631 28 1.04813 27.6712 0.539038 27.0136C0.0299468 26.3561 -0.118538 25.6242 0.0935831 24.8182C0.0935831 24.8182 1.84358 17.8182 1.84358 17.8182C1.84358 17.8182 1.84358 15.2727 1.84358 15.2727C1.84358 14.5727 2.09283 13.9735 2.59131 13.475C3.0898 12.9765 3.68904 12.7273 4.38904 12.7273C4.38904 12.7273 9.47995 12.7273 9.47995 12.7273C9.47995 12.7273 9.47995 3.81818 9.47995 3.81818C9.47995 2.75758 9.85116 1.85606 10.5936 1.11364C11.336 0.371213 12.2375 0 13.2981 0C14.3587 0 15.2603 0.371213 16.0027 1.11364C16.7451 1.85606 17.1163 2.75758 17.1163 3.81818C17.1163 3.81818 17.1163 12.7273 17.1163 12.7273C17.1163 12.7273 22.2072 12.7273 22.2072 12.7273C22.9072 12.7273 23.5065 12.9765 24.0049 13.475C24.5034 13.9735 24.7527 14.5727 24.7527 15.2727C24.7527 15.2727 24.7527 17.8182 24.7527 17.8182C24.7527 17.8182 26.5027 24.8182 26.5027 24.8182C26.7784 25.6242 26.6565 26.3561 26.1368 27.0136C25.6171 27.6712 24.9224 28 24.0527 28C24.0527 28 24.0527 28 24.0527 28ZM22.2072 15L4.38904 15L22.2072 15L22.2072 15ZM14.5709 12.8906L12.0254 12.8906L14.5709 12.8906L14.5709 12.8906Z" fill="#E3E3E3" transform="translate(48.5 19.5)" />
  </g>
</svg>